{
   "accessors" : [
      {
         "bufferView" : 0,
         "componentType" : 5123,
         "count" : 1257,
         "max" : [ 1256 ],
         "min" : [ 0 ],
         "name" : "buffer-0-accessor-indices-buffer-0-mesh-0",
         "type" : "SCALAR"
      },
      {
         "bufferView" : 2,
         "componentType" : 5126,
         "count" : 1257,
         "max" : [ 10.56017875671387, 21.88951683044434, 2.351160764694214 ],
         "min" : [ -17.45969390869141, 0, -6.714617252349854 ],
         "name" : "buffer-0-accessor-position-buffer-0-mesh-0",
         "type" : "VEC3"
      },
      {
         "bufferView" : 2,
         "byteOffset" : 15084,
         "componentType" : 5126,
         "count" : 1257,
         "max" : [ 0.9934354424476624, 0.9634729027748108, 0.9995676279067993 ],
         "min" : [ -0.9661927223205566, -0.9743623733520508, -0.9994359612464905 ],
         "name" : "buffer-0-accessor-normal-buffer-0-mesh-0",
         "type" : "VEC3"
      },
      {
         "bufferView" : 1,
         "componentType" : 5126,
         "count" : 0,
         "max" : [ 0, 0 ],
         "min" : [ 0, 0 ],
         "name" : "buffer-0-accessor-texcoord-buffer-0-mesh-0",
         "type" : "VEC2"
      },
      {
         "bufferView" : 3,
         "componentType" : 5126,
         "count" : 0,
         "max" : [ 0, 0, 0, 0 ],
         "min" : [ 0, 0, 0, 0 ],
         "name" : "buffer-0-accessor-color-buffer-0-mesh-0",
         "type" : "VEC4"
      },
      {
         "bufferView" : 0,
         "byteOffset" : 2514,
         "componentType" : 5123,
         "count" : 1008,
         "max" : [ 1007 ],
         "min" : [ 0 ],
         "name" : "buffer-0-accessor-indices-buffer-0-mesh-0",
         "type" : "SCALAR"
      },
      {
         "bufferView" : 2,
         "byteOffset" : 30168,
         "componentType" : 5126,
         "count" : 1008,
         "max" : [ 12.4019718170166, 20.52166938781738, 1.615103006362915 ],
         "min" : [ -19.73948860168457, 0, -5.865860462188721 ],
         "name" : "buffer-0-accessor-position-buffer-0-mesh-0",
         "type" : "VEC3"
      },
      {
         "bufferView" : 2,
         "byteOffset" : 42264,
         "componentType" : 5126,
         "count" : 1008,
         "max" : [ 0.9594367742538452, 0.9466793537139893, 0.9994601607322693 ],
         "min" : [ -0.9456531405448914, -1, -0.9994601607322693 ],
         "name" : "buffer-0-accessor-normal-buffer-0-mesh-0",
         "type" : "VEC3"
      },
      {
         "bufferView" : 1,
         "componentType" : 5126,
         "count" : 0,
         "max" : [ 0, 0 ],
         "min" : [ 0, 0 ],
         "name" : "buffer-0-accessor-texcoord-buffer-0-mesh-0",
         "type" : "VEC2"
      },
      {
         "bufferView" : 3,
         "componentType" : 5126,
         "count" : 0,
         "max" : [ 0, 0, 0, 0 ],
         "min" : [ 0, 0, 0, 0 ],
         "name" : "buffer-0-accessor-color-buffer-0-mesh-0",
         "type" : "VEC4"
      },
      {
         "bufferView" : 0,
         "byteOffset" : 4530,
         "componentType" : 5123,
         "count" : 9,
         "max" : [ 8 ],
         "min" : [ 0 ],
         "name" : "buffer-0-accessor-indices-buffer-0-mesh-0",
         "type" : "SCALAR"
      },
      {
         "bufferView" : 2,
         "byteOffset" : 54360,
         "componentType" : 5126,
         "count" : 9,
         "max" : [ 3.498174667358398, 20.36459350585938, 0 ],
         "min" : [ -17.45969390869141, 0, -4.163225173950195 ],
         "name" : "buffer-0-accessor-position-buffer-0-mesh-0",
         "type" : "VEC3"
      },
      {
         "bufferView" : 2,
         "byteOffset" : 54468,
         "componentType" : 5126,
         "count" : 9,
         "max" : [ 0.2461045980453491, 0.539126992225647, 0.3044665157794952 ],
         "min" : [ -0.8685814738273621, -0.9487236142158508, -0.2516411244869232 ],
         "name" : "buffer-0-accessor-normal-buffer-0-mesh-0",
         "type" : "VEC3"
      },
      {
         "bufferView" : 1,
         "componentType" : 5126,
         "count" : 0,
         "max" : [ 0, 0 ],
         "min" : [ 0, 0 ],
         "name" : "buffer-0-accessor-texcoord-buffer-0-mesh-0",
         "type" : "VEC2"
      },
      {
         "bufferView" : 3,
         "componentType" : 5126,
         "count" : 0,
         "max" : [ 0, 0, 0, 0 ],
         "min" : [ 0, 0, 0, 0 ],
         "name" : "buffer-0-accessor-color-buffer-0-mesh-0",
         "type" : "VEC4"
      },
      {
         "bufferView" : 0,
         "byteOffset" : 4548,
         "componentType" : 5123,
         "count" : 12,
         "max" : [ 11 ],
         "min" : [ 0 ],
         "name" : "buffer-0-accessor-indices-buffer-0-mesh-0",
         "type" : "SCALAR"
      },
      {
         "bufferView" : 2,
         "byteOffset" : 54576,
         "componentType" : 5126,
         "count" : 12,
         "max" : [ 0, 19.28520011901855, 0 ],
         "min" : [ -19.73948860168457, 0, -3.295871257781982 ],
         "name" : "buffer-0-accessor-position-buffer-0-mesh-0",
         "type" : "VEC3"
      },
      {
         "bufferView" : 2,
         "byteOffset" : 54720,
         "componentType" : 5126,
         "count" : 12,
         "max" : [ 0, 0.02834954299032688, 0.1677166223526001 ],
         "min" : [ -0.9981765747070312, -0.1031119227409363, -0.2317420095205307 ],
         "name" : "buffer-0-accessor-normal-buffer-0-mesh-0",
         "type" : "VEC3"
      },
      {
         "bufferView" : 1,
         "componentType" : 5126,
         "count" : 0,
         "max" : [ 0, 0 ],
         "min" : [ 0, 0 ],
         "name" : "buffer-0-accessor-texcoord-buffer-0-mesh-0",
         "type" : "VEC2"
      },
      {
         "bufferView" : 3,
         "componentType" : 5126,
         "count" : 0,
         "max" : [ 0, 0, 0, 0 ],
         "min" : [ 0, 0, 0, 0 ],
         "name" : "buffer-0-accessor-color-buffer-0-mesh-0",
         "type" : "VEC4"
      }
   ],
   "asset" : {
      "generator" : "Obj2GltfConverter",
      "version" : "2.0"
   },
   "bufferViews" : [
      {
         "buffer" : 0,
         "byteLength" : 4572,
         "byteStride" : 0,
         "name" : "buffer-0-bufferview-ushort",
         "target" : 34963
      },
      {
         "buffer" : 0,
         "byteLength" : 1,
         "name" : "buffer-0-bufferview-vec2"
      },
      {
         "buffer" : 0,
         "byteLength" : 54864,
         "byteOffset" : 4584,
         "byteStride" : 12,
         "name" : "buffer-0-bufferview-vec3",
         "target" : 34962
      },
      {
         "buffer" : 0,
         "byteLength" : 1,
         "name" : "buffer-0-bufferview-vec4"
      }
   ],
   "buffers" : [
      {
         "byteLength" : 59456,
         "name" : "buffer-0",
         "uri" : "Dog.bin"
      }
   ],
   "materials" : [
      {
         "doubleSided" : true,
         "name" : "Brown",
         "pbrMetallicRoughness" : {
            "baseColorFactor" : [ 0.7309644818306, 0.34901961684227, 0.06307815015316, 1 ],
            "metallicFactor" : 0,
            "roughnessFactor" : 0.9407687922168915
         }
      },
      {
         "doubleSided" : true,
         "name" : "white",
         "pbrMetallicRoughness" : {
            "baseColorFactor" : [ 0.87843143939972, 0.85882359743118, 0.83529418706894, 1 ],
            "metallicFactor" : 0,
            "roughnessFactor" : 0.9407687922168915
         }
      },
      {
         "doubleSided" : true,
         "name" : "Eyes",
         "pbrMetallicRoughness" : {
            "baseColorFactor" : [ 0.14901961386204, 0.07058823853731, 0.00784313771874, 1 ],
            "metallicFactor" : 0,
            "roughnessFactor" : 0.9407687922168915
         }
      },
      {
         "doubleSided" : true,
         "name" : "Nose",
         "pbrMetallicRoughness" : {
            "baseColorFactor" : [ 0.00392156885937, 0.00392156885937, 0.00392156885937, 1 ],
            "metallicFactor" : 0,
            "roughnessFactor" : 0.9699476628648295
         }
      }
   ],
   "meshes" : [
      {
         "name" : "buffer-0-mesh-0",
         "primitives" : [
            {
               "attributes" : {
                  "NORMAL" : 2,
                  "POSITION" : 1,
                  "TEXCOORD_0" : 3
               },
               "indices" : 0,
               "material" : 0
            },
            {
               "attributes" : {
                  "NORMAL" : 7,
                  "POSITION" : 6,
                  "TEXCOORD_0" : 8
               },
               "indices" : 5,
               "material" : 1
            },
            {
               "attributes" : {
                  "NORMAL" : 12,
                  "POSITION" : 11,
                  "TEXCOORD_0" : 13
               },
               "indices" : 10,
               "material" : 2
            },
            {
               "attributes" : {
                  "NORMAL" : 17,
                  "POSITION" : 16,
                  "TEXCOORD_0" : 18
               },
               "indices" : 15,
               "material" : 3
            }
         ]
      }
   ],
   "nodes" : [
      {
         "mesh" : 0,
         "name" : "node-0"
      }
   ],
   "scenes" : [
      {
         "name" : "scene-0",
         "nodes" : [ 0 ]
      }
   ]
}
